<svg width="280" height="280" viewBox="0 0 280 280" fill="none" xmlns="http://www.w3.org/2000/svg">
<path d="M242.748 2.8875C241.085 1.05 238.74 0 236.255 0H43.7555C41.288 0 38.9255 1.05 37.263 2.8875C35.618 4.7075 34.7955 7.1575 35.0405 9.625L61.2905 272.125C61.7455 276.605 65.508 280 70.0055 280H210.005C214.503 280 218.265 276.605 218.703 272.125L244.953 9.625C245.215 7.1575 244.41 4.7075 242.748 2.8875Z" fill="#ECEFF1"/>
<path d="M219.455 89.25L202.13 262.5H77.8805L58.4555 68.775C80.3305 61.775 113.58 57.05 140.005 78.75C165.555 99.75 197.755 95.9 219.455 89.25Z" fill="#2196F3" fill-opacity="0.2"/>
<path d="M210 181.5L201.675 262H77.425L68.5 170C90.375 166.738 111.5 161.5 139.55 176.382C165 189.884 188.3 184.599 210 181.5Z" fill="#2196F3" fill-opacity="0.2"/>
<path d="M66 139.741L78 263H201.5L215 124.5C193.125 119.52 163.875 116.833 137.45 132.271C111.9 147.212 87.7 144.472 66 139.741Z" fill="#2196F3" fill-opacity="0.2"/>
<path d="M73.5 219L78 263H201.5L206.5 213.424C190 205.5 166.5 192.5 137.45 213.424C108.4 234.348 87 227 73.5 219Z" fill="#2196F3" fill-opacity="0.2"/>
</svg>
